<?xml version="1.0" encoding="UTF-8" standalone="no"?>
<!-- Created with Inkscape (http://www.inkscape.org/) -->

<svg
   xmlns:dc="http://purl.org/dc/elements/1.1/"
   xmlns:cc="http://creativecommons.org/ns#"
   xmlns:rdf="http://www.w3.org/1999/02/22-rdf-syntax-ns#"
   xmlns:svg="http://www.w3.org/2000/svg"
   xmlns="http://www.w3.org/2000/svg"
   xmlns:sodipodi="http://sodipodi.sourceforge.net/DTD/sodipodi-0.dtd"
   xmlns:inkscape="http://www.inkscape.org/namespaces/inkscape"
   width="210mm"
   height="297mm"
   viewBox="0 0 210 297"
   version="1.1"
   id="svg8"
   sodipodi:docname="logo.svg"
   inkscape:version="0.92.3 (2405546, 2018-03-11)">
  <defs
     id="defs2" />
  <sodipodi:namedview
     id="base"
     pagecolor="#ffffff"
     bordercolor="#666666"
     borderopacity="1.0"
     inkscape:pageopacity="0.0"
     inkscape:pageshadow="2"
     inkscape:zoom="1.4"
     inkscape:cx="280.39691"
     inkscape:cy="155.22998"
     inkscape:document-units="mm"
     inkscape:current-layer="layer1"
     showgrid="false"
     inkscape:window-width="1366"
     inkscape:window-height="705"
     inkscape:window-x="-8"
     inkscape:window-y="-8"
     inkscape:window-maximized="1" />
  <metadata
     id="metadata5">
    <rdf:RDF>
      <cc:Work
         rdf:about="">
        <dc:format>image/svg+xml</dc:format>
        <dc:type
           rdf:resource="http://purl.org/dc/dcmitype/StillImage" />
        <dc:title></dc:title>
      </cc:Work>
    </rdf:RDF>
  </metadata>
  <g
     inkscape:label="Layer 1"
     inkscape:groupmode="layer"
     id="layer1">
    <path
       style="fill:#6a0509;fill-opacity:1;stroke-width:0.26458332"
       d="M 7.7771602,296.82355 C 6.5999341,296.53258 4.6828843,295.40644 4.4698681,295.23122 L 3.9944923,294.8402 c -0.4951829,-0.40731 -2.3381375,-2.45846 -3.21126028,-4.21069 0,0 -0.67622142,-0.85516 -0.67898892,-1.36263 -0.034575,-6.34 -0.072768,-19.5481 -0.072768,-19.5481 -0.071147,-19.11257 -0.060932,-19.57238 0.45846572,-20.63751 1.20778538,-2.47681 4.57496548,-5.50038 7.15236438,-6.42249 0.738351,-0.26416 20.4265858,-0.3346 96.0960348,-0.34384 103.45566,-0.0126 96.57225,0.68518 99.35501,1.40832 2.16006,1.40822 2.78225,2.45937 3.42567,3.47712 0.25219,0.3989 0.50449,0.79773 0.75656,1.19671 0.0641,0.10146 0.41008,0.84245 0.76995,1.82982 0.35861,1.57667 0.41808,4.36019 0.41808,19.56615 0,11.47155 -0.0993,18.22279 -0.28144,19.13007 -0.34958,1.74151 -0.91232,2.59868 -1.07357,2.85729 l -0.23249,0.37286 c -0.26155,0.41947 -2.87789,3.24174 -4.29869,4.10378 0,0 -0.80643,0.53349 -1.23384,0.53239 -32.8947,-0.0847 -96.33205,0.19034 -96.33205,0.19034 -53.0423,0.0679 -96.7978078,-0.0483 -97.2343698,-0.15621 z M 200.96777,293.28164 c 1.81425,-0.67201 3.73434,-3.01548 4.48173,-5.46997 0.48637,-1.59726 0.54028,-33.99839 0.0598,-35.93232 -0.53538,-2.15486 -2.3168,-4.44784 -4.32172,-5.56275 -0.73706,-0.40987 -7.65331,-0.4414 -96.8375,-0.4414 H 8.3063272 l -1.5104801,0.92604 c -0.9491402,0.5819 -1.6865938,1.27019 -1.9843752,1.85209 -0.2606426,0.50932 -0.5691002,0.99625 -0.6854616,1.08206 -0.1163613,0.0858 -0.384252,0.72981 -0.5953125,1.43111 -0.3187734,1.05921 -0.3837463,4.27765 -0.3837463,19.00889 0,17.20125 0.015912,17.76666 0.5299035,18.82843 0.8460362,1.74767 2.9572791,3.82031 4.5225622,4.43987 0.204321,0.0809 43.4721168,0.14738 96.1506528,0.14779 72.66189,5.3e-4 95.98156,-0.0742 96.6177,-0.30984 z M 11.613618,282.01408 v -1.34616 h 3.030259 c 3.414018,0 4.227531,-0.24581 4.629488,-1.39887 0.611446,-1.754 0.579327,-1.77614 -2.577108,-1.77614 h -2.854861 l -1.093278,-0.99218 c -1.597828,-1.45009 -2.192834,-3.16743 -2.192834,-6.3291 0,-2.91604 0.353036,-4.28098 1.585254,-5.74117 1.273387,-1.50898 1.828463,-1.73606 6.307042,-1.88517 l 4.013954,-0.13363 v 8.49731 c 0,9.44294 -0.129451,10.33506 -1.684814,11.61103 -0.772018,0.63334 -0.983928,0.66526 -4.984699,0.75085 l -4.178403,0.0894 z m 7.9375,-12.06179 v -4.89479 l -1.653646,10e-4 c -1.90927,0.002 -3.405306,0.72645 -4.045343,1.96012 -0.453951,0.87499 -0.516199,4.04291 -0.108302,5.51166 0.428715,1.54375 1.768593,2.31648 4.016626,2.31648 h 1.790665 z m 126.550232,8.02299 c -2.40983,-1.14411 -3.61302,-3.62595 -3.633,-7.49382 -0.0162,-3.13449 0.58517,-4.82901 2.22918,-6.28137 1.49908,-1.32434 2.02753,-1.52385 4.03623,-1.52385 2.94864,0 5.09423,1.59895 5.9097,4.40404 0.59822,2.05783 0.63058,5.42511 0.0677,7.04482 l -0.43871,1.26241 5.0657,-0.0718 c 0,0 3.27566,0.0197 4.86524,-0.14697 0.27889,-0.0292 0.56387,-0.68355 0.56387,-0.68355 0.25606,-0.5346 0.29345,-1.00354 0.12657,-1.5875 0,0 -0.1651,-0.47108 -0.38717,-0.65338 -0.88318,-0.72502 -3.26603,-0.45713 -3.26603,-0.45713 -3.54437,-0.15043 -3.85645,-0.70366 -4.16941,-1.87088 -0.29005,-1.08174 -0.49091,-4.63193 -0.17301,-5.06956 0.14904,-0.20517 0.47953,-0.99829 0.93856,-1.32036 0.77757,-0.54559 1.12558,-0.5856 5.09323,-0.5856 h 4.25863 v 1.32291 1.32292 h -3.00322 c -2.90323,0 -4.59192,0.30528 -4.99637,0.90324 -0.3403,0.50312 -0.21725,1.66555 0.21421,2.02364 0.24796,0.20578 1.57575,0.42231 3.27885,0.5347 1.57418,0.10388 3.10746,0.26674 3.4073,0.3619 0.8525,0.27057 1.41552,1.6759 1.56105,3.89641 0.16828,2.56786 -0.5071,4.26115 -1.86715,4.68121 -0.46399,0.1433 -4.85602,0.30653 -9.76006,0.36272 -8.17333,0.0936 -9.00022,0.0624 -9.92187,-0.3752 z m 4.88542,-3.50474 c 0,0 0.54108,-0.4967 0.72103,-0.90571 0.39749,-0.90342 0.26727,-2.961 0.26727,-2.961 0,0 -0.0323,-2.1789 -0.43703,-3.07912 -0.2117,-0.4709 -0.72148,-0.90996 -0.72148,-0.90996 -1.65768,-1.47106 -2.99748,-1.2638 -4.5222,0.47044 -0.57337,0.65216 -0.66929,1.02786 -0.66929,3.57413 0,0 0.0868,1.98835 0.46772,2.85405 0.18672,0.42439 0.55773,0.92309 0.55773,0.92309 0.84907,0.77815 1.22516,0.93979 2.18669,0.93979 0.95332,0 1.33822,-0.16218 2.14956,-0.90571 z m -20.83982,-3.85679 v -7.67292 h 3.974 c 3.7504,0 4.03121,0.0361 4.99043,0.64163 1.711,1.08012 1.88348,1.88199 1.88348,8.75643 v 5.94777 h -1.32291 -1.32292 v -5.4092 c 0,-5.28463 -0.0142,-5.42573 -0.61708,-6.1266 -0.55525,-0.64552 -0.8336,-0.72993 -2.77812,-0.8425 l -2.13743,0.0639 -0.0236,6.06271 v 6.2517 h -1.32292 -1.32291 z m 42.56791,7.24852 c -1.52633,-0.63401 -1.6662,-1.19125 -1.76959,-7.05008 l -0.0922,-5.22553 h -1.43535 -1.43535 v -1.32292 -1.32291 h 1.45521 1.45521 v -2.92425 -2.92424 l 1.38906,0.08 1.38907,0.08 0.0751,2.84427 0.0751,2.84427 h 1.71084 1.71084 v 1.31083 1.31083 l -1.78594,0.0782 -1.78593,0.0782 -0.0806,3.175 c -0.0961,3.78345 0.0625,5.06878 0.73424,5.94981 0.44061,0.57791 0.70552,0.65855 2.17304,0.66146 l 1.67126,0.003 0.0709,-6.28386 0.0709,-6.28385 h 3.34368 c 3.14932,0 3.39354,0.038 4.20163,0.65439 l 0.85796,0.6544 0.16424,-0.6544 0.16424,-0.65439 h 4.07878 c 6.95784,0 7.05936,0.13107 7.22386,9.32656 l 0.10768,6.01927 h -4.61238 c -2.75901,0 -4.97378,-0.12153 -5.51176,-0.30245 -1.97131,-0.66293 -2.65892,-2.58938 -2.09691,-5.87487 0.31927,-1.86648 0.34287,-1.90618 1.42255,-2.39269 0.80592,-0.36315 1.95986,-0.52923 4.33904,-0.6245 l 3.24115,-0.12978 -0.004,-0.69567 c -0.0116,-2.23845 -0.87655,-2.68004 -5.24928,-2.68004 h -3.18854 l -0.0788,1.65365 -0.0788,1.65365 -1.25677,0.0806 -1.25677,0.0806 v -1.06039 c 0,-1.97584 -0.62743,-2.66012 -2.4474,-2.66916 l -0.7276,-0.004 v 6.48229 6.48229 l -3.63802,-0.0136 c -2.60749,-0.01 -3.90884,-0.12613 -4.59407,-0.41076 z m 22.78417,-4.3761 v -1.89009 l -2.82887,0.14438 c -3.17879,0.16224 -3.52113,0.36115 -3.52113,2.04594 0,1.45701 0.2918,1.58985 3.4925,1.58985 h 2.8575 z M 24.578201,269.95229 v -7.54063 h 1.322917 1.322916 v 7.54063 7.54062 h -1.322916 -1.322917 z m 5.08911,0.0662 0.07026,-7.47448 6.879167,-0.0791 c 7.881585,-0.0906 8.531069,0.0107 9.440426,1.47326 0.589772,0.94854 0.617,1.2325 0.697195,7.27095 l 0.08346,6.28385 h -1.340226 -1.340225 v -5.38828 c 0,-5.05054 -0.03437,-5.43197 -0.54837,-6.08541 -0.490795,-0.62394 -0.726925,-0.69714 -2.248959,-0.69714 h -1.700588 v 6.08541 6.08542 h -1.455208 -1.455209 v -6.08542 -6.08541 h -2.248958 -2.248958 v 6.08541 6.08542 h -1.327036 -1.327039 z m 19.252557,-0.0662 v -7.54063 h 3.951525 c 4.123955,0 5.075516,0.17912 5.880124,1.10684 0.846159,0.97563 1.01328,2.32931 1.014791,8.21973 l 0.0015,5.75468 h -1.32294 -1.322917 v -5.17676 c 0,-6.75701 -0.107746,-6.97171 -3.505729,-6.98566 l -2.050521,-0.008 v 6.08542 6.08542 h -1.322917 -1.322916 z m 12.847608,6.76286 c -0.63187,-0.65953 -0.765204,-1.05815 -0.877115,-2.62227 -0.166727,-2.33022 0.0664,-3.58122 0.808429,-4.33815 1.106961,-1.12921 1.628995,-1.25765 5.1117,-1.25765 h 3.34572 l -0.147161,-1.09716 c -0.264475,-1.97181 -0.735513,-2.19659 -4.824357,-2.30223 l -3.564824,-0.0921 v -1.29696 -1.29696 h 4.070665 c 4.541514,0 6.025671,0.40017 6.482385,1.54427 l 0.188731,0.99973 0.331842,4.90395 0.367135,4.98747 h 4.67179 c 5.345837,0 5.847868,-0.14893 5.847868,-1.7348 0,-1.63803 -0.638823,-1.96937 -3.796977,-1.96937 -2.946069,0 -4.264599,-0.30141 -4.675275,-1.06877 -0.142449,-0.26617 -0.258998,-1.6943 -0.258998,-3.17363 0,0 -0.009,-1.48595 0.26727,-2.33889 0.135086,-0.41709 0.460047,-0.75656 0.771088,-1.06554 0.298677,-0.2967 0.627134,-0.60524 1.028079,-0.73363 1.394289,-0.44647 4.124813,-0.35079 4.124813,-0.35079 h 4.392084 v 1.32292 1.32291 h -3.439584 c -3.086806,0 -3.493857,0.0543 -3.96875,0.52917 -0.693467,0.69347 -0.672327,1.6981 0.04989,2.37094 0.501955,0.46765 0.928084,0.53948 3.200302,0.53948 2.188451,0 2.742737,0.0865 3.357073,0.52396 1.092415,0.77786 1.594819,2.06866 1.594819,4.09748 0,1.89692 -0.214961,2.51298 -1.272456,3.64679 l -0.678629,0.7276 H 73.393826 62.51262 Z m 8.508046,-3.56424 -0.188988,-2.008 h -2.691145 c -3.211915,0 -3.658855,0.24558 -3.658855,2.01038 0,1.67099 0.552207,1.95837 3.76304,1.95837 l 2.894066,0.0236 z m 29.066352,4.15052 c -0.867466,-0.22117 -2.441525,-2.15722 -2.894709,-3.56041 -0.553548,-1.71397 -0.571685,-5.73405 -0.03404,-7.54451 0.443384,-1.49302 1.735823,-3.0739 2.863629,-3.50269 0.40818,-0.15519 2.163136,-0.28216 3.899916,-0.28216 h 3.15778 v 1.28754 1.28755 l -2.66216,0.12819 c -2.85182,0.13733 -3.708006,0.48916 -4.429392,1.82015 -0.51254,0.94568 -0.28437,5.60095 0.303336,6.18866 0.24102,0.24102 0.43822,0.52966 0.43822,0.64143 0,0.53907 1.704376,0.9105 4.696346,1.02344 l 3.24115,0.12234 v -1.77789 c 0,-2.16468 0.51363,-3.36011 1.75956,-4.09523 0.79073,-0.46655 1.36834,-0.54076 4.20869,-0.54076 h 3.29216 v -0.94343 c 0,-2.09129 -0.86468,-2.49615 -5.33114,-2.49615 h -3.13552 v -1.32292 -1.32292 h 4.08381 c 2.24611,0 4.40989,0.12397 4.80842,0.27549 0.85549,0.32526 1.95568,1.44313 1.95568,1.9871 0,0.21079 0.11907,0.38325 0.26459,0.38325 0.16888,0 0.26458,2.24896 0.26458,6.21771 v 6.2177 l -10.12031,-0.0307 c -5.56617,-0.0169 -10.349936,-0.0892 -10.630596,-0.16079 z M 117.18236,272.995 v -1.85209 h -2.52556 c -2.32869,0 -2.5762,0.0506 -3.175,0.64944 -0.74571,0.7457 -0.83,1.62087 -0.23756,2.46669 0.38092,0.54383 0.61961,0.58804 3.175,0.58804 h 2.76312 z M 24.578201,258.17833 v -1.5875 h 1.322917 1.322916 v 1.5875 1.5875 h -1.322916 -1.322917 z m 40.929081,-0.0597 c -0.828392,-0.90595 -1.506164,-1.67986 -1.506164,-1.71979 0,-0.0399 0.52165,-0.0726 1.159221,-0.0726 1.001057,0 1.245955,0.11732 1.794897,0.85989 0.566163,0.76587 1.279215,2.13702 1.279215,2.45985 0,0.0659 -0.274727,0.11984 -0.610502,0.11984 -0.410954,0 -1.102815,-0.5384 -2.116667,-1.64718 z"
       id="path826"
       inkscape:connector-curvature="0"
       sodipodi:nodetypes="csssssscscsscscsscsscccccsscccccsccscccsssccssscssccccccscscccccsccccsccsccscscccsccccccccccscscssscscccscscccscccccccccccccccccccccccccccccccccccsccccsscsccccccscccccscccccccccssscccccccccccccccscccsssccccccccccccccccssccccsccccccccccscsscccsscccssssssssccccsccscscccccccsssccccccscccccssccscscsscccscsssccccccsccsccccccccccccsscsscc" />
  </g>
</svg>
